<svg xmlns="http://www.w3.org/2000/svg" xmlns:xlink="http://www.w3.org/1999/xlink" width="500" zoomAndPan="magnify" viewBox="0 0 375 374.999991" height="500" preserveAspectRatio="xMidYMid meet" version="1.0"><defs><g/></defs><g fill="#ffffff" fill-opacity="1"><g transform="translate(27.040978, 213.365744)"><g><path d="M 4.78125 0 L 4.78125 -1.421875 C 6.46875 -1.960938 7.566406 -3.097656 8.078125 -4.828125 C 8.585938 -6.554688 8.84375 -9.25 8.84375 -12.90625 L 8.84375 -58.25 C 8.84375 -61.90625 8.585938 -64.597656 8.078125 -66.328125 C 7.566406 -68.054688 6.46875 -69.191406 4.78125 -69.734375 L 4.78125 -71.15625 L 23.6875 -71.15625 L 23.6875 -69.734375 C 21.988281 -69.191406 20.882812 -68.054688 20.375 -66.328125 C 19.875 -64.597656 19.625 -61.90625 19.625 -58.25 L 19.625 -38.625 L 55 -38.625 L 55 -58.25 C 55 -61.90625 54.742188 -64.597656 54.234375 -66.328125 C 53.722656 -68.054688 52.625 -69.191406 50.9375 -69.734375 L 50.9375 -71.15625 L 69.84375 -71.15625 L 69.84375 -69.734375 C 68.144531 -69.191406 67.039062 -68.054688 66.53125 -66.328125 C 66.019531 -64.597656 65.765625 -61.90625 65.765625 -58.25 L 65.765625 -12.90625 C 65.765625 -9.25 66.019531 -6.554688 66.53125 -4.828125 C 67.039062 -3.097656 68.144531 -1.960938 69.84375 -1.421875 L 69.84375 0 L 50.9375 0 L 50.9375 -1.421875 C 52.625 -1.960938 53.722656 -3.097656 54.234375 -4.828125 C 54.742188 -6.554688 55 -9.25 55 -12.90625 L 55 -36.796875 L 19.625 -36.796875 L 19.625 -12.90625 C 19.625 -9.25 19.875 -6.554688 20.375 -4.828125 C 20.882812 -3.097656 21.988281 -1.960938 23.6875 -1.421875 L 23.6875 0 Z M 4.78125 0 "/></g></g></g><g fill="#ffffff" fill-opacity="1"><g transform="translate(120.864111, 213.365744)"><g><path d="M 4.78125 0 L 4.78125 -1.421875 C 6.46875 -1.960938 7.566406 -3.097656 8.078125 -4.828125 C 8.585938 -6.554688 8.84375 -9.25 8.84375 -12.90625 L 8.84375 -58.25 C 8.84375 -61.90625 8.585938 -64.597656 8.078125 -66.328125 C 7.566406 -68.054688 6.46875 -69.191406 4.78125 -69.734375 L 4.78125 -71.15625 L 53.578125 -71.15625 L 54.6875 -56.828125 L 53.375 -56.515625 C 51.332031 -61.535156 48.597656 -64.957031 45.171875 -66.78125 C 41.753906 -68.613281 37.203125 -69.53125 31.515625 -69.53125 L 19.625 -69.53125 L 19.625 -39.03125 L 29.375 -39.03125 C 33.507812 -39.03125 36.765625 -39.300781 39.140625 -39.84375 C 41.515625 -40.382812 43.273438 -41.234375 44.421875 -42.390625 C 45.578125 -43.546875 46.425781 -45.003906 46.96875 -46.765625 L 48.390625 -46.765625 L 48.390625 -29.6875 L 46.96875 -29.6875 C 46.425781 -31.445312 45.578125 -32.898438 44.421875 -34.046875 C 43.273438 -35.203125 41.515625 -36.050781 39.140625 -36.59375 C 36.765625 -37.132812 33.507812 -37.40625 29.375 -37.40625 L 19.625 -37.40625 L 19.625 -6.703125 C 19.625 -3.316406 21.316406 -1.625 24.703125 -1.625 L 34.46875 -1.625 C 39.613281 -1.625 43.945312 -2.570312 47.46875 -4.46875 C 51 -6.363281 53.710938 -9.890625 55.609375 -15.046875 L 56.921875 -14.84375 L 56.21875 0 Z M 4.78125 0 "/></g></g></g><g fill="#ffffff" fill-opacity="1"><g transform="translate(200.558117, 213.365744)"><g><path d="M 56.515625 0.71875 C 53.742188 0.71875 51.523438 0.09375 49.859375 -1.15625 C 48.203125 -2.414062 46.742188 -4.332031 45.484375 -6.90625 C 44.234375 -9.488281 42.796875 -12.742188 41.171875 -16.671875 C 39.679688 -20.398438 38.425781 -23.535156 37.40625 -26.078125 C 36.394531 -28.617188 35.410156 -30.648438 34.453125 -32.171875 C 33.503906 -33.703125 32.351562 -34.804688 31 -35.484375 C 29.644531 -36.160156 27.851562 -36.5 25.625 -36.5 L 19.625 -36.5 L 19.625 -12.90625 C 19.625 -9.25 19.875 -6.554688 20.375 -4.828125 C 20.882812 -3.097656 21.988281 -1.960938 23.6875 -1.421875 L 23.6875 0 L 4.78125 0 L 4.78125 -1.421875 C 6.46875 -1.960938 7.566406 -3.097656 8.078125 -4.828125 C 8.585938 -6.554688 8.84375 -9.25 8.84375 -12.90625 L 8.84375 -58.25 C 8.84375 -61.90625 8.585938 -64.597656 8.078125 -66.328125 C 7.566406 -68.054688 6.46875 -69.191406 4.78125 -69.734375 L 4.78125 -71.15625 L 26.125 -71.15625 C 31.6875 -71.15625 36.210938 -70.695312 39.703125 -69.78125 C 43.191406 -68.875 45.882812 -67.65625 47.78125 -66.125 C 49.675781 -64.601562 50.992188 -62.859375 51.734375 -60.890625 C 52.484375 -58.921875 52.859375 -56.921875 52.859375 -54.890625 C 52.859375 -50.210938 51.234375 -46.25 47.984375 -43 C 44.734375 -39.75 39.71875 -37.71875 32.9375 -36.90625 C 35.78125 -36.5625 38.132812 -35.984375 40 -35.171875 C 41.863281 -34.359375 43.457031 -33.1875 44.78125 -31.65625 C 46.101562 -30.132812 47.304688 -28.203125 48.390625 -25.859375 C 49.472656 -23.523438 50.691406 -20.664062 52.046875 -17.28125 C 53.878906 -12.8125 55.300781 -9.421875 56.3125 -7.109375 C 57.332031 -4.804688 58.28125 -3.265625 59.15625 -2.484375 C 60.039062 -1.710938 61.09375 -1.328125 62.3125 -1.328125 C 62.582031 -1.328125 62.835938 -1.328125 63.078125 -1.328125 C 63.316406 -1.328125 63.570312 -1.359375 63.84375 -1.421875 L 63.84375 0 C 62.6875 0.269531 61.394531 0.457031 59.96875 0.5625 C 58.550781 0.664062 57.398438 0.71875 56.515625 0.71875 Z M 19.625 -38.125 L 26.125 -38.125 C 29.988281 -38.125 33.085938 -38.765625 35.421875 -40.046875 C 37.765625 -41.335938 39.457031 -43.082031 40.5 -45.28125 C 41.550781 -47.488281 42.078125 -49.878906 42.078125 -52.453125 C 42.078125 -55.234375 41.46875 -57.925781 40.25 -60.53125 C 39.03125 -63.144531 37.097656 -65.296875 34.453125 -66.984375 C 31.816406 -68.679688 28.363281 -69.53125 24.09375 -69.53125 C 22.664062 -69.53125 21.175781 -69.429688 19.625 -69.234375 Z M 19.625 -38.125 "/></g></g></g><g fill="#ffffff" fill-opacity="1"><g transform="translate(282.590049, 213.365744)"><g><path d="M -2.140625 0 L -2.140625 -1.421875 C -0.578125 -1.960938 0.894531 -3.007812 2.28125 -4.5625 C 3.675781 -6.125 5.050781 -8.601562 6.40625 -12 L 25.40625 -59.15625 C 26.15625 -61.0625 26.085938 -62.894531 25.203125 -64.65625 L 23.890625 -67.5 L 33.84375 -71.96875 L 59.0625 -11.890625 C 60.488281 -8.566406 61.859375 -6.125 63.171875 -4.5625 C 64.492188 -3.007812 65.734375 -1.960938 66.890625 -1.421875 L 66.890625 0 L 48.390625 0 L 48.390625 -1.421875 C 50.085938 -1.960938 50.710938 -3.007812 50.265625 -4.5625 C 49.828125 -6.125 48.894531 -8.566406 47.46875 -11.890625 L 41.375 -26.53125 L 14.234375 -26.53125 L 8.328125 -12 C 6.972656 -8.601562 6.429688 -6.09375 6.703125 -4.46875 C 6.972656 -2.84375 7.957031 -1.828125 9.65625 -1.421875 L 9.65625 0 Z M 14.84375 -28.15625 L 40.65625 -28.15625 L 27.546875 -59.578125 Z M 14.84375 -28.15625 "/></g></g></g></svg>