<svg xmlns="http://www.w3.org/2000/svg" xmlns:xlink="http://www.w3.org/1999/xlink" width="1500" zoomAndPan="magnify" viewBox="0 0 1125 374.999991" height="500" preserveAspectRatio="xMidYMid meet" version="1.0"><defs><g/></defs><g fill="#000000" fill-opacity="1"><g transform="translate(481.625344, 208.987661)"><g><path d="M 2.375 0 L 2.375 -0.703125 C 3.21875 -0.972656 3.765625 -1.539062 4.015625 -2.40625 C 4.273438 -3.269531 4.40625 -4.609375 4.40625 -6.421875 L 4.40625 -29.015625 C 4.40625 -30.828125 4.273438 -32.164062 4.015625 -33.03125 C 3.765625 -33.894531 3.21875 -34.460938 2.375 -34.734375 L 2.375 -35.4375 L 11.796875 -35.4375 L 11.796875 -34.734375 C 10.953125 -34.460938 10.398438 -33.894531 10.140625 -33.03125 C 9.890625 -32.164062 9.765625 -30.828125 9.765625 -29.015625 L 9.765625 -19.234375 L 27.390625 -19.234375 L 27.390625 -29.015625 C 27.390625 -30.828125 27.257812 -32.164062 27 -33.03125 C 26.75 -33.894531 26.203125 -34.460938 25.359375 -34.734375 L 25.359375 -35.4375 L 34.78125 -35.4375 L 34.78125 -34.734375 C 33.9375 -34.460938 33.382812 -33.894531 33.125 -33.03125 C 32.875 -32.164062 32.75 -30.828125 32.75 -29.015625 L 32.75 -6.421875 C 32.75 -4.609375 32.875 -3.269531 33.125 -2.40625 C 33.382812 -1.539062 33.9375 -0.972656 34.78125 -0.703125 L 34.78125 0 L 25.359375 0 L 25.359375 -0.703125 C 26.203125 -0.972656 26.75 -1.539062 27 -2.40625 C 27.257812 -3.269531 27.390625 -4.609375 27.390625 -6.421875 L 27.390625 -18.328125 L 9.765625 -18.328125 L 9.765625 -6.421875 C 9.765625 -4.609375 9.890625 -3.269531 10.140625 -2.40625 C 10.398438 -1.539062 10.953125 -0.972656 11.796875 -0.703125 L 11.796875 0 Z M 2.375 0 "/></g></g></g><g fill="#000000" fill-opacity="1"><g transform="translate(528.34291, 208.987661)"><g><path d="M 2.375 0 L 2.375 -0.703125 C 3.21875 -0.972656 3.765625 -1.539062 4.015625 -2.40625 C 4.273438 -3.269531 4.40625 -4.609375 4.40625 -6.421875 L 4.40625 -29.015625 C 4.40625 -30.828125 4.273438 -32.164062 4.015625 -33.03125 C 3.765625 -33.894531 3.21875 -34.460938 2.375 -34.734375 L 2.375 -35.4375 L 26.671875 -35.4375 L 27.234375 -28.296875 L 26.578125 -28.140625 C 25.566406 -30.640625 24.207031 -32.34375 22.5 -33.25 C 20.800781 -34.164062 18.53125 -34.625 15.6875 -34.625 L 9.765625 -34.625 L 9.765625 -19.4375 L 14.625 -19.4375 C 16.6875 -19.4375 18.304688 -19.570312 19.484375 -19.84375 C 20.671875 -20.113281 21.550781 -20.535156 22.125 -21.109375 C 22.695312 -21.679688 23.117188 -22.40625 23.390625 -23.28125 L 24.09375 -23.28125 L 24.09375 -14.78125 L 23.390625 -14.78125 C 23.117188 -15.65625 22.695312 -16.378906 22.125 -16.953125 C 21.550781 -17.523438 20.671875 -17.945312 19.484375 -18.21875 C 18.304688 -18.488281 16.6875 -18.625 14.625 -18.625 L 9.765625 -18.625 L 9.765625 -3.34375 C 9.765625 -1.65625 10.609375 -0.8125 12.296875 -0.8125 L 17.15625 -0.8125 C 19.726562 -0.8125 21.890625 -1.28125 23.640625 -2.21875 C 25.398438 -3.164062 26.75 -4.925781 27.6875 -7.5 L 28.34375 -7.390625 L 28 0 Z M 2.375 0 "/></g></g></g><g fill="#000000" fill-opacity="1"><g transform="translate(568.025221, 208.987661)"><g><path d="M 28.140625 0.359375 C 26.765625 0.359375 25.660156 0.046875 24.828125 -0.578125 C 24.003906 -1.203125 23.28125 -2.15625 22.65625 -3.4375 C 22.03125 -4.71875 21.3125 -6.335938 20.5 -8.296875 C 19.757812 -10.160156 19.132812 -11.722656 18.625 -12.984375 C 18.125 -14.253906 17.632812 -15.265625 17.15625 -16.015625 C 16.6875 -16.773438 16.113281 -17.320312 15.4375 -17.65625 C 14.757812 -18 13.863281 -18.171875 12.75 -18.171875 L 9.765625 -18.171875 L 9.765625 -6.421875 C 9.765625 -4.609375 9.890625 -3.269531 10.140625 -2.40625 C 10.398438 -1.539062 10.953125 -0.972656 11.796875 -0.703125 L 11.796875 0 L 2.375 0 L 2.375 -0.703125 C 3.21875 -0.972656 3.765625 -1.539062 4.015625 -2.40625 C 4.273438 -3.269531 4.40625 -4.609375 4.40625 -6.421875 L 4.40625 -29.015625 C 4.40625 -30.828125 4.273438 -32.164062 4.015625 -33.03125 C 3.765625 -33.894531 3.21875 -34.460938 2.375 -34.734375 L 2.375 -35.4375 L 13.015625 -35.4375 C 15.773438 -35.4375 18.023438 -35.207031 19.765625 -34.75 C 21.503906 -34.300781 22.847656 -33.695312 23.796875 -32.9375 C 24.742188 -32.175781 25.398438 -31.304688 25.765625 -30.328125 C 26.140625 -29.347656 26.328125 -28.351562 26.328125 -27.34375 C 26.328125 -25.007812 25.515625 -23.03125 23.890625 -21.40625 C 22.273438 -19.789062 19.78125 -18.78125 16.40625 -18.375 C 17.820312 -18.207031 18.992188 -17.921875 19.921875 -17.515625 C 20.847656 -17.109375 21.640625 -16.523438 22.296875 -15.765625 C 22.953125 -15.003906 23.550781 -14.039062 24.09375 -12.875 C 24.632812 -11.71875 25.242188 -10.296875 25.921875 -8.609375 C 26.828125 -6.378906 27.535156 -4.691406 28.046875 -3.546875 C 28.554688 -2.398438 29.03125 -1.628906 29.46875 -1.234375 C 29.90625 -0.847656 30.425781 -0.65625 31.03125 -0.65625 C 31.164062 -0.65625 31.289062 -0.65625 31.40625 -0.65625 C 31.53125 -0.65625 31.660156 -0.671875 31.796875 -0.703125 L 31.796875 0 C 31.222656 0.132812 30.582031 0.226562 29.875 0.28125 C 29.164062 0.332031 28.585938 0.359375 28.140625 0.359375 Z M 9.765625 -18.984375 L 13.015625 -18.984375 C 14.929688 -18.984375 16.472656 -19.300781 17.640625 -19.9375 C 18.804688 -20.582031 19.648438 -21.453125 20.171875 -22.546875 C 20.691406 -23.648438 20.953125 -24.84375 20.953125 -26.125 C 20.953125 -27.507812 20.648438 -28.847656 20.046875 -30.140625 C 19.441406 -31.441406 18.476562 -32.515625 17.15625 -33.359375 C 15.84375 -34.203125 14.125 -34.625 12 -34.625 C 11.289062 -34.625 10.546875 -34.570312 9.765625 -34.46875 Z M 9.765625 -18.984375 "/></g></g></g><g fill="#000000" fill-opacity="1"><g transform="translate(608.871643, 208.987661)"><g><path d="M -1.0625 0 L -1.0625 -0.703125 C -0.289062 -0.972656 0.4375 -1.492188 1.125 -2.265625 C 1.820312 -3.046875 2.507812 -4.28125 3.1875 -5.96875 L 12.65625 -29.46875 C 13.03125 -30.40625 13 -31.316406 12.5625 -32.203125 L 11.890625 -33.609375 L 16.859375 -35.84375 L 29.40625 -5.921875 C 30.113281 -4.265625 30.796875 -3.046875 31.453125 -2.265625 C 32.117188 -1.492188 32.738281 -0.972656 33.3125 -0.703125 L 33.3125 0 L 24.09375 0 L 24.09375 -0.703125 C 24.9375 -0.972656 25.25 -1.492188 25.03125 -2.265625 C 24.8125 -3.046875 24.347656 -4.265625 23.640625 -5.921875 L 20.609375 -13.21875 L 7.09375 -13.21875 L 4.15625 -5.96875 C 3.476562 -4.28125 3.207031 -3.03125 3.34375 -2.21875 C 3.476562 -1.414062 3.96875 -0.910156 4.8125 -0.703125 L 4.8125 0 Z M 7.390625 -14.015625 L 20.25 -14.015625 L 13.71875 -29.671875 Z M 7.390625 -14.015625 "/></g></g></g></svg>